HIERARCHY
ROOT Hips
{
	OFFSET -0.001795 -0.223333 0.028219
	CHANNELS 6 Xposition Yposition Zposition Zrotation Yrotation Xrotation 
	JOINT LeftUpLeg
	{
		OFFSET 0.069520 -0.091406 -0.006815
		CHANNELS 3 Zrotation Yrotation Xrotation
		JOINT LeftLeg
		{
			OFFSET 0.034277 -0.375199 -0.004496
			CHANNELS 3 Zrotation Yrotation Xrotation
			JOINT LeftFoot
			{
				OFFSET -0.013596 -0.397961 -0.043693
				CHANNELS 3 Zrotation Yrotation Xrotation
				JOINT LeftToe
				{
					OFFSET 0.026358 -0.055791 0.119288
					CHANNELS 3 Zrotation Yrotation Xrotation
					End Site
					{
						OFFSET 0.000000 0.000000 0.000000
					}
				}
			}
		}
	}
	JOINT RightUpLeg
	{
		OFFSET -0.067670 -0.090522 -0.004320
		CHANNELS 3 Zrotation Yrotation Xrotation
		JOINT RightLeg
		{
			OFFSET -0.038290 -0.382569 -0.008850
			CHANNELS 3 Zrotation Yrotation Xrotation
			JOINT RightFoot
			{
				OFFSET 0.015774 -0.398415 -0.042312
				CHANNELS 3 Zrotation Yrotation Xrotation
				JOINT RightToe
				{
					OFFSET -0.025372 -0.048144 0.123348
					CHANNELS 3 Zrotation Yrotation Xrotation
					End Site
					{
						OFFSET 0.000000 0.000000 0.000000
					}
				}
			}
		}
	}
	JOINT Spine
	{
		OFFSET -0.002533 0.108963 -0.026696
		CHANNELS 3 Zrotation Yrotation Xrotation
		JOINT Spine1
		{
			OFFSET 0.005487 0.135180 0.001092
			CHANNELS 3 Zrotation Yrotation Xrotation
			JOINT Spine2
			{
				OFFSET 0.001457 0.052922 0.025425
				CHANNELS 3 Zrotation Yrotation Xrotation
				JOINT Neck
				{
					OFFSET -0.002778 0.213870 -0.042857
					CHANNELS 3 Zrotation Yrotation Xrotation
					JOINT Head
					{
						OFFSET 0.005152 0.064970 0.051349
						CHANNELS 3 Zrotation Yrotation Xrotation
						End Site
						{
							OFFSET 0.000000 0.000000 0.000000
						}
					}
				}
				JOINT LeftShoulder
				{
					OFFSET 0.078845 0.121749 -0.034090
					CHANNELS 3 Zrotation Yrotation Xrotation
					JOINT LeftArm
					{
						OFFSET 0.090977 0.030469 -0.008868
						CHANNELS 3 Zrotation Yrotation Xrotation
						JOINT LeftForeArm
						{
							OFFSET 0.259612 -0.012772 -0.027456
							CHANNELS 3 Zrotation Yrotation Xrotation
							JOINT LeftHand
							{
								OFFSET 0.249234 0.008986 -0.001171
								CHANNELS 3 Zrotation Yrotation Xrotation
								End Site
								{
									OFFSET 0.000000 0.000000 0.000000
								}
							}
						}
					}
				}
				JOINT RightShoulder
				{
					OFFSET -0.081759 0.118833 -0.038615
					CHANNELS 3 Zrotation Yrotation Xrotation
					JOINT RightArm
					{
						OFFSET -0.096012 0.032551 -0.009143
						CHANNELS 3 Zrotation Yrotation Xrotation
						JOINT RightForeArm
						{
							OFFSET -0.253742 -0.013329 -0.021401
							CHANNELS 3 Zrotation Yrotation Xrotation
							JOINT RightHand
							{
								OFFSET -0.255298 0.007772 -0.005559
								CHANNELS 3 Zrotation Yrotation Xrotation
								End Site
								{
									OFFSET 0.000000 0.000000 0.000000
								}
							}
						}
					}
				}
			}
		}
	}
}
MOTION
Frames: 16
Frame Time: 0.050000
-0.113064 0.941555 0.231664 0.164617 -0.605056 -0.319680 9.772615 -0.105062 -1.997457 -3.964391 0.441576 0.577884 12.932574 24.096516 19.820996 0.000000 0.000000 0.000000 -10.890519 0.300180 -8.112144 3.421227 -0.296752 6.142591 -7.066602 -18.296608 15.655394 0.000000 0.000000 0.000000 4.035210 -1.897960 24.695092 -3.544276 1.426971 -28.585935 -3.581498 7.512982 26.250283 15.026594 -3.195334 -40.351262 0.000000 0.000000 0.000000 -1.595541 -14.633303 4.845674 -31.118106 -30.978454 1.664504 42.490022 -48.461480 -18.688516 0.000000 0.000000 0.000000 18.291641 0.257571 0.869775 31.246720 35.336117 3.063738 -45.141344 46.549219 -15.205322 0.000000 0.000000 0.000000 
-0.112027 0.942098 0.234752 -0.032620 -0.422538 -0.719840 9.959063 -0.094666 -1.139538 -3.789981 0.420412 -0.187552 12.353553 23.340576 20.435644 0.000000 0.000000 0.000000 -10.600146 0.284916 -6.571266 2.852253 -0.234255 4.483312 -6.553423 -17.469543 16.348191 0.000000 0.000000 0.000000 3.976594 -1.778884 23.221754 -3.207933 1.364740 -28.026969 -3.836954 7.533409 26.277150 14.711706 -3.182267 -39.572603 0.000000 0.000000 0.000000 -1.553915 -15.078276 4.984907 -31.176406 -30.872683 1.648431 41.602261 -47.257189 -17.781175 0.000000 0.000000 0.000000 18.606823 0.620920 1.105420 31.944696 36.012460 3.393011 -46.047761 43.921899 -14.460825 0.000000 0.000000 0.000000 
-0.111162 0.942230 0.237661 -0.135150 -0.233385 -0.812443 10.094454 -0.096562 -0.908436 -3.797081 0.419546 -0.026143 12.143114 23.095273 20.324670 0.000000 0.000000 0.000000 -10.569359 0.271658 -5.822725 2.671722 -0.222447 3.727726 -6.426247 -17.242155 16.397754 0.000000 0.000000 0.000000 3.975867 -1.720428 22.346624 -3.629152 1.456966 -27.693934 -3.513239 7.203688 26.322207 14.206063 -3.023921 -39.299874 0.000000 0.000000 0.000000 -2.088989 -15.117849 5.021144 -31.466317 -30.604476 1.653752 42.418469 -46.130422 -17.632616 0.000000 0.000000 0.000000 18.626986 0.688948 1.090860 32.664952 36.552426 3.716156 -46.476188 41.746521 -13.720688 0.000000 0.000000 0.000000 
-0.110402 0.941763 0.240543 -0.292666 -0.296564 -1.013280 10.133644 -0.089209 -0.449268 -3.863286 0.427376 -0.016883 12.182350 23.136020 20.416070 0.000000 0.000000 0.000000 -10.322408 0.269485 -5.212360 2.275132 -0.180061 3.079638 -6.146920 -16.807102 16.609090 0.000000 0.000000 0.000000 4.062194 -1.654943 21.331783 -3.634905 1.460352 -27.474533 -3.711395 7.705503 26.583578 14.082774 -3.016278 -38.700585 0.000000 0.000000 0.000000 -2.462464 -15.189476 5.028505 -31.259420 -30.587008 1.600752 43.976437 -45.055178 -18.024000 0.000000 0.000000 0.000000 18.646677 0.783032 1.257852 32.971945 37.089302 3.911274 -47.548469 39.575152 -13.081724 0.000000 0.000000 0.000000 
-0.109911 0.941265 0.243301 -0.419981 -0.131078 -1.139659 10.310311 -0.091310 -0.151220 -4.071113 0.449293 0.212117 12.264265 23.280391 19.862722 0.000000 0.000000 0.000000 -10.330199 0.255868 -4.689286 2.186895 -0.178216 2.656305 -6.171110 -16.839918 16.797815 0.000000 0.000000 0.000000 4.184912 -1.619808 20.508813 -3.967204 1.541588 -26.805405 -3.503314 7.863246 26.234671 13.879544 -2.931558 -38.270108 0.000000 0.000000 0.000000 -2.757822 -15.135924 4.991811 -31.504048 -30.472474 1.649491 46.212371 -44.125133 -18.732372 0.000000 0.000000 0.000000 18.147876 0.811211 1.290510 33.583554 37.329111 4.203910 -49.062748 37.942229 -12.814305 0.000000 0.000000 0.000000 
-0.109695 0.940507 0.245896 -0.593118 0.010733 -1.184586 10.617846 -0.096985 -0.134419 -4.457311 0.493546 0.697145 12.120018 23.120354 19.619307 0.000000 0.000000 0.000000 -10.144555 0.247578 -4.112121 2.204618 -0.185742 2.452363 -6.038247 -16.600939 16.739518 0.000000 0.000000 0.000000 4.333627 -1.585252 19.654903 -4.153312 1.581759 -26.777284 -3.524377 8.226621 26.281366 13.860178 -2.917261 -37.906591 0.000000 0.000000 0.000000 -2.945009 -15.160116 4.971883 -31.323168 -30.535172 1.635126 47.721323 -43.305015 -19.179549 0.000000 0.000000 0.000000 17.971576 1.039875 1.507598 33.072028 37.820427 4.228444 -49.491622 36.306283 -12.188794 0.000000 0.000000 0.000000 
-0.109689 0.939898 0.248282 -0.581556 0.085977 -1.387746 10.724824 -0.095471 0.086310 -4.842237 0.541980 1.220094 12.111982 23.133347 19.252545 0.000000 0.000000 0.000000 -10.238970 0.233724 -3.651809 2.431381 -0.213935 2.540511 -6.241355 -16.919470 16.648496 0.000000 0.000000 0.000000 4.382061 -1.568314 19.354025 -4.382028 1.638323 -26.646793 -3.515223 8.345032 25.991944 13.839162 -2.881640 -37.834063 0.000000 0.000000 0.000000 -2.925624 -15.241171 4.983535 -30.884037 -30.345427 1.566594 49.316053 -42.661589 -19.699231 0.000000 0.000000 0.000000 17.565154 1.336459 1.667257 32.553744 38.198981 4.269411 -49.643659 35.102667 -11.736384 0.000000 0.000000 0.000000 
-0.109725 0.938864 0.250309 -0.691146 0.108195 -1.545868 11.021660 -0.094507 -0.059115 -5.343540 0.613768 2.127289 12.145546 23.209968 18.594414 0.000000 0.000000 0.000000 -10.151469 0.230022 -3.632112 2.582604 -0.224520 3.088093 -6.582314 -17.458979 16.411022 0.000000 0.000000 0.000000 4.629260 -1.599939 19.220948 -4.590703 1.682331 -26.779214 -3.788229 8.746017 25.898929 13.924332 -2.920274 -37.469627 0.000000 0.000000 0.000000 -2.753952 -15.846877 5.162493 -29.797867 -30.575085 1.479411 50.146689 -41.534790 -19.693068 0.000000 0.000000 0.000000 17.129481 1.719286 1.929572 31.403555 38.711190 4.159890 -49.086984 34.102542 -11.162159 0.000000 0.000000 0.000000 
-0.109829 0.937644 0.251570 -0.606717 0.076050 -1.613560 11.069264 -0.088634 -0.592145 -5.694328 0.676713 3.209709 12.299743 23.441892 17.968818 0.000000 0.000000 0.000000 -10.432640 0.227213 -3.846389 2.935344 -0.261515 3.828473 -6.613363 -17.473437 15.626571 0.000000 0.000000 0.000000 4.671154 -1.630425 19.533103 -4.647234 1.692171 -26.962093 -4.081858 9.008884 25.717836 14.224912 -3.046855 -37.318885 0.000000 0.000000 0.000000 -2.055713 -16.380547 5.320931 -28.654828 -30.996753 1.409969 50.505096 -40.140054 -19.291012 0.000000 0.000000 0.000000 16.345987 2.028537 2.079738 29.926964 39.697513 4.113956 -47.994187 33.204732 -10.543963 0.000000 0.000000 0.000000 
-0.110017 0.935893 0.251762 -0.664440 0.222986 -1.684871 11.287172 -0.087942 -1.150888 -6.278020 0.779879 4.413981 12.639684 23.939618 17.204541 0.000000 0.000000 0.000000 -10.518548 0.224782 -4.495763 3.413256 -0.316846 5.279614 -6.925807 -17.938831 14.796900 0.000000 0.000000 0.000000 4.884026 -1.703660 19.889593 -4.806299 1.729601 -26.966509 -4.439310 9.001974 25.457836 14.399800 -3.215942 -36.758709 0.000000 0.000000 0.000000 -1.523678 -17.049698 5.529666 -26.712810 -31.886564 1.306654 50.227802 -38.419469 -18.414684 0.000000 0.000000 0.000000 15.595327 2.587867 2.319222 27.773859 40.704175 3.866714 -46.974475 32.240855 -10.017588 0.000000 0.000000 0.000000 
-0.110367 0.933757 0.250428 -0.614434 0.215430 -1.569384 11.468665 -0.079306 -2.350431 -7.024815 0.931744 5.901721 12.963352 24.442330 16.120877 0.000000 0.000000 0.000000 -10.920252 0.224691 -5.624252 4.200779 -0.433414 7.203914 -6.948046 -17.919302 13.529907 0.000000 0.000000 0.000000 4.681229 -1.724643 20.547467 -4.566839 1.674605 -27.069467 -4.873471 8.993162 25.266114 14.720443 -3.359807 -36.786553 0.000000 0.000000 0.000000 -0.314878 -17.977312 5.803094 -24.989017 -32.984401 1.210834 50.514047 -36.755230 -17.780621 0.000000 0.000000 0.000000 14.806756 3.527369 2.723497 25.458463 41.832539 3.564211 -46.937446 30.737851 -9.553833 0.000000 0.000000 0.000000 
-0.110901 0.930068 0.247640 -0.743855 0.183181 -1.481648 12.127349 -0.044884 -4.260767 -8.146847 1.208273 8.407589 13.441141 25.188692 14.869323 0.000000 0.000000 0.000000 -11.262334 0.220812 -7.689927 5.205017 -0.625482 10.280346 -7.329944 -18.535988 12.245756 0.000000 0.000000 0.000000 4.741586 -1.881105 22.208492 -4.776455 1.709210 -27.536877 -5.124137 9.004712 25.082994 15.152700 -3.652718 -36.336463 0.000000 0.000000 0.000000 0.649808 -19.154093 6.136489 -22.553333 -34.380454 0.999672 50.536566 -34.797101 -16.896812 0.000000 0.000000 0.000000 14.251317 4.683790 3.247482 22.941528 43.206889 3.184602 -46.989746 29.428493 -9.200334 0.000000 0.000000 0.000000 
-0.111328 0.925723 0.243438 -0.800066 0.044951 -1.380241 12.749183 0.030483 -7.019756 -9.605577 1.678240 12.220159 14.056717 26.188831 13.285138 0.000000 0.000000 0.000000 -11.886200 0.189745 -9.987665 6.387964 -0.914305 13.621177 -7.445470 -18.699400 10.639021 0.000000 0.000000 0.000000 4.320488 -1.929965 23.872763 -4.342722 1.613910 -27.550194 -5.457505 9.245512 24.903798 15.149047 -3.560199 -36.614270 0.000000 0.000000 0.000000 2.214334 -20.485161 6.453282 -20.104539 -36.119485 0.718322 50.160108 -32.276177 -15.631744 0.000000 0.000000 0.000000 13.489259 5.902358 3.795366 20.368088 44.994108 2.808491 -47.490982 27.317914 -8.573966 0.000000 0.000000 0.000000 
-0.111476 0.919440 0.238164 -0.949401 0.117272 -1.510266 13.617833 0.159741 -10.012040 -10.999877 2.266840 16.672933 14.727877 27.339334 11.575503 0.000000 0.000000 0.000000 -12.401647 0.123201 -12.894872 7.456565 -1.284603 18.042086 -7.716085 -19.151528 9.209930 0.000000 0.000000 0.000000 4.353834 -2.155011 26.417358 -4.895614 1.728007 -27.815712 -5.430121 8.567223 24.645940 15.348181 -3.773077 -36.512742 0.000000 0.000000 0.000000 2.993383 -22.130400 6.872894 -17.746025 -37.318475 0.404868 49.474300 -30.367526 -14.388111 0.000000 0.000000 0.000000 13.028896 7.390017 4.349033 18.064041 46.410202 2.337570 -47.569106 26.785358 -8.612087 0.000000 0.000000 0.000000 
-0.111360 0.911635 0.231519 -0.925994 -0.161308 -1.370723 14.535368 0.363869 -13.416778 -12.768111 3.157207 21.570238 14.931469 27.802410 10.300944 0.000000 0.000000 0.000000 -12.925305 0.053720 -15.935636 8.511062 -1.716263 22.444289 -7.872231 -19.420657 7.008158 0.000000 0.000000 0.000000 3.735086 -2.167230 28.697530 -4.392734 1.619166 -27.761405 -5.714667 8.474622 24.250424 15.298444 -3.664696 -36.995381 0.000000 0.000000 0.000000 4.361688 -23.295076 7.073864 -15.809998 -38.894318 0.100895 47.872699 -28.138779 -12.814530 0.000000 0.000000 0.000000 12.105880 9.328023 5.103910 15.725754 47.778827 1.825984 -47.742762 25.543967 -8.306648 0.000000 0.000000 0.000000 
-0.111154 0.898892 0.223528 -1.079758 -0.282444 -1.405930 16.044097 0.731766 -17.294449 -15.068707 4.566874 27.892457 15.516715 29.076534 7.692246 0.000000 0.000000 0.000000 -13.351906 -0.053171 -19.866715 9.565115 -2.323457 28.505500 -8.337881 -20.338989 4.829150 0.000000 0.000000 0.000000 3.654956 -2.360715 31.567361 -5.007999 1.745789 -27.864908 -5.369071 7.959032 24.175501 15.451201 -3.745204 -37.458124 0.000000 0.000000 0.000000 4.972802 -24.131263 7.223828 -13.726646 -41.251860 -0.261751 46.233141 -26.253967 -11.377340 0.000000 0.000000 0.000000 11.218102 10.663778 5.499264 14.208222 48.933534 1.461305 -48.174101 26.103390 -8.794287 0.000000 0.000000 0.000000 
